<svg xmlns="http://www.w3.org/2000/svg" viewBox="0 0 1377 256" width="1377" height="256">
  <title>MarkOne</title>
  <rect width="256" height="256" rx="56" fill="#2E2C28"/>
  <path fill="#D89A4E" d="M113.04 109L151.04 109L142.96 147L104.96 147Z"/>
  <path fill="#F4EFE4" d="M40 80L216 80L216 112L40 112ZM40 144L216 144L216 176L40 176ZM98.71 40L130.71 40L93.29 216L61.29 216ZM162.71 40L194.71 40L157.29 216L125.29 216Z"/>
  <path fill="#33322E" d="M326.96 42.78L386.02 42.78L435.64 172.8L478 64.04C479.54 60.05 480.86 55.87 481.96 51.52C483.06 47.16 483.65 44.25 483.73 42.78L540.21 42.78L540.21 51.45C537.94 51.53 535.03 51.9 531.49 52.55C527.95 53.2 525.36 53.81 523.74 54.38C520.97 55.36 519.1 56.98 518.12 59.26C517.14 61.54 516.66 64.02 516.66 66.71L516.66 191.59C516.66 194.43 517.14 196.83 518.12 198.79C519.1 200.74 520.97 202.45 523.74 203.92C525.2 204.73 527.8 205.48 531.55 206.17C535.29 206.87 538.26 207.25 540.46 207.33L540.46 216L463.92 216L463.92 207.33C466.69 207.25 470.25 206.97 474.6 206.48C478.96 205.99 481.95 205.3 483.57 204.4C486.1 202.86 487.95 201.09 489.13 199.09C490.31 197.1 490.9 194.6 490.9 191.59L490.9 65.61L489.07 65.61L429.99 213.19L423.88 213.19L367.61 62.56L366.02 62.56L366.02 165.95C366.02 175.96 366.65 183.57 367.91 188.78C369.17 193.99 371.11 197.73 373.71 200.01C375.5 201.72 379.2 203.35 384.82 204.89C390.43 206.44 394.1 207.25 395.81 207.33L395.81 216L325.86 216L325.86 207.33C329.52 207.01 333.37 206.4 337.4 205.5C341.42 204.61 344.54 203.26 346.73 201.47C349.58 199.19 351.53 195.7 352.59 190.98C353.65 186.26 354.18 178.36 354.18 167.29L354.18 78.67C354.18 73.54 353.57 69.35 352.35 66.1C351.13 62.84 349.38 60.2 347.1 58.16C344.58 55.97 341.48 54.34 337.82 53.28C334.16 52.22 330.54 51.61 326.96 51.45L326.96 42.78ZM632.01 149.35C625.09 151.39 619.03 153.39 613.82 155.34C608.61 157.3 603.77 159.75 599.3 162.68C595.23 165.46 592.01 168.74 589.65 172.53C587.29 176.32 586.11 180.83 586.11 186.05C586.11 192.82 587.88 197.79 591.42 200.97C594.96 204.16 599.46 205.75 604.91 205.75C610.69 205.75 615.77 204.34 620.17 201.53C624.56 198.71 628.27 195.39 631.28 191.56L632.01 149.35ZM610.28 92.22C617.12 92.22 623.08 92.69 628.16 93.62C633.25 94.56 637.87 96.57 642.02 99.67C646.17 102.68 649.32 106.77 651.48 111.94C653.64 117.1 654.72 123.76 654.72 131.89C654.72 143.53 654.59 153.85 654.35 162.84C654.1 171.83 653.98 181.66 653.98 192.32C653.98 195.49 654.53 198.01 655.63 199.89C656.73 201.76 658.42 203.35 660.7 204.65C661.92 205.38 663.85 205.79 666.5 205.87C669.14 205.95 671.85 205.99 674.61 205.99L674.61 213.8C670.79 215.19 667.43 216.31 664.54 217.16C661.65 218.01 658.38 218.44 654.72 218.44C648.37 218.44 643.3 216.96 639.52 213.99C635.73 211.02 633.31 206.68 632.25 200.99L631.52 200.99C626.23 206.84 620.56 211.32 614.49 214.41C608.43 217.51 601.13 219.05 592.58 219.05C583.55 219.05 576.12 216.28 570.3 210.75C564.48 205.22 561.58 197.97 561.58 189.02C561.58 184.38 562.23 180.23 563.53 176.57C564.83 172.91 566.78 169.61 569.39 166.68C571.42 164.24 574.11 162.07 577.44 160.15C580.78 158.24 583.91 156.71 586.84 155.58C590.51 154.19 597.93 151.63 609.12 147.88C620.31 144.14 627.86 141.21 631.77 139.1L631.77 127.01C631.77 125.95 631.54 123.92 631.09 120.91C630.65 117.9 629.69 115.05 628.23 112.36C626.6 109.35 624.3 106.73 621.33 104.49C618.36 102.25 614.15 101.13 608.69 101.13C604.95 101.13 601.47 101.76 598.26 103.02C595.04 104.29 592.78 105.61 591.48 106.99C591.48 108.62 591.87 111.02 592.64 114.19C593.42 117.37 593.8 120.3 593.8 122.98C593.8 125.83 592.52 128.43 589.96 130.79C587.39 133.15 583.83 134.33 579.28 134.33C575.21 134.33 572.22 132.89 570.3 130C568.39 127.11 567.43 123.88 567.43 120.3C567.43 116.55 568.76 112.97 571.4 109.55C574.05 106.14 577.49 103.08 581.72 100.4C585.38 98.12 589.81 96.19 595.02 94.6C600.23 93.01 605.32 92.22 610.28 92.22ZM761.4 92.71C766.53 92.71 770.7 94.38 773.92 97.71C777.13 101.05 778.74 105.53 778.74 111.14C778.74 115.29 777.72 118.97 775.69 122.19C773.65 125.4 770.52 127.01 766.29 127.01C761.73 127.01 758.25 125.83 755.85 123.47C753.45 121.11 752.25 118.51 752.25 115.66C752.25 113.87 752.39 112.24 752.68 110.78C752.96 109.31 753.23 107.85 753.47 106.38C749.65 106.38 745.17 107.93 740.04 111.02C734.92 114.11 730.56 118.51 726.98 124.2L726.98 194.27C726.98 197.12 727.53 199.44 728.63 201.23C729.73 203.02 731.46 204.36 733.82 205.26C735.85 206.07 738.48 206.68 741.69 207.09C744.91 207.5 747.69 207.78 750.05 207.94L750.05 216L686.58 216L686.58 207.94C688.45 207.78 690.38 207.62 692.37 207.46C694.37 207.29 696.1 206.97 697.56 206.48C699.84 205.75 701.53 204.47 702.63 202.64C703.73 200.81 704.28 198.43 704.28 195.51L704.28 121.25C704.28 118.73 703.69 116.25 702.51 113.82C701.33 111.38 699.68 109.43 697.56 107.96C696.02 106.99 694.18 106.28 692.07 105.83C689.95 105.38 687.67 105.08 685.23 104.92L685.23 96.86L725.27 94.17L726.98 95.88L726.98 112.85L727.59 112.85C732.64 106.26 738.25 101.25 744.44 97.84C750.62 94.42 756.28 92.71 761.4 92.71ZM825.49 27.04L827.2 28.87L827.2 156.2C833.55 149.86 840.41 143.05 847.78 135.77C855.15 128.49 861.36 122 866.41 116.31C867.06 115.57 867.77 114.61 868.55 113.43C869.32 112.25 869.71 111.29 869.71 110.55C869.71 108.35 867.94 106.72 864.4 105.66C860.86 104.59 857.46 103.86 854.2 103.45L854.2 95.64L907.16 95.64L907.16 103.21C900.32 105.24 894.28 107.78 889.03 110.84C883.78 113.89 879.77 116.63 877.01 119.08C875.05 120.7 872.28 123.35 868.7 127C865.11 130.66 860.1 135.45 853.66 141.38C860.34 149.61 867.85 159.46 876.2 170.94C884.55 182.42 890.63 190.73 894.46 195.85C898.04 200.66 901.26 203.79 904.1 205.26C906.95 206.72 911.1 207.62 916.56 207.94L916.56 216L880.24 216C873.88 206.81 867.08 196.98 859.83 186.49C852.58 176 845.04 165.8 837.22 155.88L827.2 165.22L827.2 193.78C827.2 196.71 827.73 199.13 828.79 201.05C829.85 202.96 831.55 204.36 833.91 205.26C835.87 206.07 837.74 206.68 839.53 207.09C841.32 207.5 843.4 207.78 845.76 207.94L845.76 216L786.8 216L786.8 207.94C788.65 207.78 790.59 207.6 792.61 207.39C794.63 207.19 796.33 206.88 797.71 206.48C799.97 205.74 801.67 204.46 802.8 202.63C803.93 200.8 804.5 198.41 804.5 195.48L804.5 55.49C804.5 52.48 803.86 49.65 802.6 47C801.34 44.35 799.69 42.34 797.66 40.95C795.95 39.65 793.29 38.8 789.66 38.39C786.04 37.98 783.13 37.7 780.94 37.53L780.94 29.72L825.49 27.04Z"/>
  <path fill="#B8742F" d="M1007.13 49.5C997.37 49.5 989.06 51.73 982.23 56.21C975.39 60.69 969.82 66.67 965.5 74.15C961.44 81.32 958.4 89.7 956.41 99.3C954.42 108.9 953.42 118.99 953.42 129.57C953.42 141.29 954.48 151.87 956.59 161.31C958.71 170.75 962.05 179.13 966.6 186.46C971 193.62 976.53 199.22 983.21 203.24C989.88 207.27 997.85 209.29 1007.13 209.29C1015.84 209.29 1023.69 207.25 1030.69 203.18C1037.69 199.11 1043.39 193.42 1047.78 186.09C1052.34 178.69 1055.65 170.31 1057.73 160.95C1059.8 151.59 1060.84 141.13 1060.84 129.57C1060.84 117.69 1059.68 106.79 1057.36 96.86C1055.04 86.93 1051.65 78.47 1047.17 71.47C1042.69 64.55 1037.08 59.16 1030.32 55.29C1023.57 51.43 1015.84 49.5 1007.13 49.5ZM1007.13 38.63C1018.61 38.63 1029.43 40.79 1039.6 45.1C1049.77 49.41 1058.56 55.48 1065.97 63.29C1073.62 71.27 1079.6 80.89 1083.91 92.16C1088.23 103.43 1090.38 115.9 1090.38 129.57C1090.38 143.33 1088.19 155.82 1083.79 167.05C1079.4 178.28 1073.29 187.84 1065.48 195.74C1057.91 203.55 1049.12 209.57 1039.11 213.8C1029.1 218.03 1018.44 220.15 1007.13 220.15C995.09 220.15 983.96 217.89 973.74 213.38C963.53 208.86 954.76 202.57 947.44 194.52C940.11 186.62 934.36 177.04 930.17 165.77C925.97 154.5 923.88 142.43 923.88 129.57C923.88 115.5 926.08 102.94 930.47 91.92C934.87 80.89 940.93 71.35 948.66 63.29C956.31 55.31 965.2 49.21 975.33 44.98C985.46 40.75 996.06 38.63 1007.13 38.63ZM1190.36 92.34C1201.92 92.34 1210.48 95.94 1216.06 103.15C1221.63 110.35 1224.42 119.93 1224.42 131.89L1224.42 194.52C1224.42 197.36 1224.91 199.66 1225.88 201.41C1226.86 203.16 1228.53 204.53 1230.89 205.5C1232.84 206.32 1234.53 206.89 1235.95 207.21C1237.38 207.54 1239.35 207.78 1241.87 207.94L1241.87 216L1183.04 216L1183.04 207.94C1184.91 207.78 1186.96 207.62 1189.2 207.46C1191.44 207.29 1193.29 206.97 1194.75 206.48C1197.03 205.75 1198.72 204.46 1199.82 202.63C1200.92 200.8 1201.47 198.42 1201.47 195.49L1201.47 133.6C1201.47 125.06 1199.45 118.47 1195.41 113.83C1191.37 109.19 1186.46 106.87 1180.67 106.87C1176.34 106.87 1172.39 107.54 1168.8 108.88C1165.21 110.23 1162.03 111.87 1159.25 113.83C1156.56 115.7 1154.42 117.71 1152.83 119.87C1151.24 122.03 1150.08 123.76 1149.34 125.06L1149.34 194.27C1149.34 197.04 1149.91 199.32 1151.05 201.11C1152.19 202.9 1153.9 204.28 1156.18 205.26C1157.89 206.07 1159.74 206.68 1161.73 207.09C1163.73 207.5 1165.78 207.78 1167.9 207.94L1167.9 216L1108.94 216L1108.94 207.94C1110.81 207.78 1112.74 207.62 1114.74 207.46C1116.73 207.29 1118.46 206.97 1119.93 206.48C1122.2 205.75 1123.89 204.47 1124.99 202.64C1126.09 200.81 1126.64 198.43 1126.64 195.51L1126.64 121.25C1126.64 118.49 1126.05 115.95 1124.87 113.63C1123.69 111.32 1122.04 109.43 1119.93 107.96C1118.38 106.99 1116.55 106.28 1114.43 105.83C1112.32 105.38 1110.04 105.08 1107.6 104.92L1107.6 96.86L1147.64 94.17L1149.34 95.88L1149.34 112.85L1149.95 112.85C1151.91 110.9 1154.35 108.56 1157.28 105.83C1160.21 103.11 1162.98 100.89 1165.58 99.18C1168.59 97.23 1172.17 95.6 1176.32 94.3C1180.47 92.99 1185.15 92.34 1190.36 92.34ZM1311.46 101.5C1302.91 101.5 1295.81 105.05 1290.15 112.15C1284.5 119.25 1281.43 129.12 1280.94 141.78L1336.6 141.78C1336.6 137.24 1336.22 132.37 1335.44 127.18C1334.67 121.99 1333.43 117.64 1331.72 114.16C1329.85 110.42 1327.28 107.38 1324.03 105.03C1320.77 102.67 1316.58 101.5 1311.46 101.5ZM1311.7 92.22C1320.49 92.22 1328.02 93.6 1334.28 96.37C1340.55 99.14 1345.64 102.92 1349.54 107.72C1353.28 112.28 1356.07 117.65 1357.9 123.84C1359.73 130.02 1360.65 136.74 1360.65 143.98L1360.65 152.04L1280.94 152.04C1280.94 159.95 1281.69 167.12 1283.2 173.57C1284.7 180.01 1287.08 185.68 1290.34 190.58C1293.51 195.31 1297.66 199.04 1302.79 201.77C1307.92 204.5 1314.02 205.87 1321.1 205.87C1328.34 205.87 1334.59 204.17 1339.84 200.78C1345.09 197.38 1350.15 191.27 1355.03 182.43L1363.58 187.68C1358.53 197.28 1351.78 204.93 1343.32 210.63C1334.85 216.33 1325.13 219.17 1314.14 219.17C1304.46 219.17 1295.97 217.46 1288.69 214.05C1281.41 210.63 1275.4 205.99 1270.68 200.13C1265.96 194.27 1262.44 187.44 1260.12 179.62C1257.81 171.81 1256.65 163.55 1256.65 154.84C1256.65 147.03 1257.89 139.36 1260.37 131.83C1262.85 124.3 1266.49 117.53 1271.29 111.51C1275.93 105.73 1281.69 101.07 1288.57 97.53C1295.44 93.99 1303.15 92.22 1311.7 92.22Z"/>
</svg>
